<?xml version="1.0" standalone="no"?>
<!DOCTYPE svg PUBLIC "-//W3C//DTD SVG 20010904//EN"
 "http://www.w3.org/TR/2001/REC-SVG-20010904/DTD/svg10.dtd">
<svg version="1.0" xmlns="http://www.w3.org/2000/svg"
 width="3000.000000pt" height="2000.000000pt" viewBox="0 0 3000.000000 2000.000000"
 preserveAspectRatio="xMidYMid meet">

<g transform="translate(0.000000,2000.000000) scale(0.100000,-0.100000)"
fill="#000000" stroke="none">
<path d="M1260 10005 l0 -3875 165 0 165 0 0 3875 0 3875 -165 0 -165 0 0
-3875z"/>
<path d="M1720 10005 l0 -3875 80 0 80 0 0 3875 0 3875 -80 0 -80 0 0 -3875z"/>
<path d="M2060 10005 l0 -3875 305 0 305 0 0 3875 0 3875 -305 0 -305 0 0
-3875z"/>
<path d="M2910 10005 l0 -3875 80 0 80 0 0 3875 0 3875 -80 0 -80 0 0 -3875z"/>
<path d="M3470 10005 l0 -3875 310 0 310 0 0 3875 0 3875 -310 0 -310 0 0
-3875z"/>
<path d="M4260 10005 l0 -3875 160 0 160 0 0 3875 0 3875 -160 0 -160 0 0
-3875z"/>
<path d="M4890 10005 l0 -3875 80 0 80 0 0 3875 0 3875 -80 0 -80 0 0 -3875z"/>
<path d="M5260 10005 l0 -3875 80 0 80 0 0 3875 0 3875 -80 0 -80 0 0 -3875z"/>
<path d="M5630 10005 l0 -3875 80 0 80 0 0 3875 0 3875 -80 0 -80 0 0 -3875z"/>
<path d="M6050 10005 l0 -3875 310 0 310 0 -2 3873 -3 3872 -307 3 -308 2 0
-3875z"/>
<path d="M6780 10005 l0 -3875 160 0 160 0 0 3875 0 3875 -160 0 -160 0 0
-3875z"/>
<path d="M7240 10005 l0 -3875 80 0 80 0 0 3875 0 3875 -80 0 -80 0 0 -3875z"/>
<path d="M7570 10005 l0 -3875 310 0 310 0 0 3875 0 3875 -310 0 -310 0 0
-3875z"/>
<path d="M8420 10005 l0 -3875 85 0 85 0 -2 3873 -3 3872 -82 3 -83 3 0 -3876z"/>
<path d="M8990 10005 l0 -3875 305 0 305 0 0 3875 0 3875 -305 0 -305 0 0
-3875z"/>
<path d="M9770 10005 l0 -3875 165 0 165 0 0 3875 0 3875 -165 0 -165 0 0
-3875z"/>
<path d="M10400 10005 l0 -3875 80 0 80 0 0 3875 0 3875 -80 0 -80 0 0 -3875z"/>
<path d="M10770 10005 l0 -3875 85 0 85 0 -2 3873 -3 3872 -82 3 -83 3 0
-3876z"/>
<path d="M11147 13873 c-4 -3 -7 -1747 -7 -3875 l0 -3868 85 0 85 0 0 3875 0
3875 -78 0 c-43 0 -82 -3 -85 -7z"/>
<path d="M11570 10005 l0 -3875 305 0 305 0 0 3875 0 3875 -305 0 -305 0 0
-3875z"/>
<path d="M12290 10005 l0 -3875 165 0 165 0 0 3875 0 3875 -165 0 -165 0 0
-3875z"/>
<path d="M12750 10005 l0 -3875 80 0 80 0 0 3875 0 3875 -80 0 -80 0 0 -3875z"/>
<path d="M13090 10005 l0 -3875 305 0 305 0 0 3875 0 3875 -305 0 -305 0 0
-3875z"/>
<path d="M13940 10005 l0 -3875 80 0 80 0 0 3875 0 3875 -80 0 -80 0 0 -3875z"/>
<path d="M14500 10005 l0 -3875 310 0 310 0 0 3875 0 3875 -310 0 -310 0 0
-3875z"/>
<path d="M15290 10005 l0 -3875 160 0 160 0 0 3875 0 3875 -160 0 -160 0 0
-3875z"/>
<path d="M15920 10005 l0 -3875 80 0 80 0 0 3875 0 3875 -80 0 -80 0 0 -3875z"/>
<path d="M16290 10005 l0 -3875 80 0 80 0 0 3875 0 3875 -80 0 -80 0 0 -3875z"/>
<path d="M16660 10005 l0 -3875 80 0 80 0 0 3875 0 3875 -80 0 -80 0 0 -3875z"/>
<path d="M17080 10005 l0 -3875 310 0 310 0 0 3875 0 3875 -310 0 -310 0 0
-3875z"/>
<path d="M17810 10005 l0 -3875 165 0 165 0 -2 3873 -3 3872 -162 3 -163 2 0
-3875z"/>
<path d="M18270 10005 l0 -3875 80 0 80 0 0 3875 0 3875 -80 0 -80 0 0 -3875z"/>
<path d="M18600 10005 l0 -3875 310 0 310 0 0 3875 0 3875 -310 0 -310 0 0
-3875z"/>
<path d="M19450 10005 l0 -3875 85 0 85 0 -2 3873 -3 3872 -82 3 -83 3 0
-3876z"/>
<path d="M20020 10005 l0 -3875 305 0 305 0 0 3875 0 3875 -305 0 -305 0 0
-3875z"/>
<path d="M20800 10005 l0 -3875 165 0 165 0 0 3875 0 3875 -165 0 -165 0 0
-3875z"/>
<path d="M21430 10005 l0 -3875 80 0 80 0 0 3875 0 3875 -80 0 -80 0 0 -3875z"/>
<path d="M21800 10005 l0 -3875 85 0 85 0 -2 3873 -3 3872 -82 3 -83 3 0
-3876z"/>
<path d="M22177 13873 c-4 -3 -7 -1747 -7 -3875 l0 -3868 85 0 85 0 0 3875 0
3875 -78 0 c-43 0 -82 -3 -85 -7z"/>
<path d="M22600 10005 l0 -3875 305 0 305 0 0 3875 0 3875 -305 0 -305 0 0
-3875z"/>
<path d="M23320 10005 l0 -3875 165 0 165 0 0 3875 0 3875 -165 0 -165 0 0
-3875z"/>
<path d="M23780 10005 l0 -3875 80 0 80 0 0 3875 0 3875 -80 0 -80 0 0 -3875z"/>
<path d="M24120 10005 l0 -3875 305 0 305 0 0 3875 0 3875 -305 0 -305 0 0
-3875z"/>
<path d="M24970 10005 l0 -3875 80 0 80 0 0 3875 0 3875 -80 0 -80 0 0 -3875z"/>
<path d="M25537 13873 c-4 -3 -7 -1747 -7 -3875 l0 -3868 310 0 310 0 0 3875
0 3875 -303 0 c-167 0 -307 -3 -310 -7z"/>
<path d="M26320 10005 l0 -3875 160 0 160 0 0 3875 0 3875 -160 0 -160 0 0
-3875z"/>
<path d="M26950 10005 l0 -3875 80 0 80 0 0 3875 0 3875 -80 0 -80 0 0 -3875z"/>
<path d="M27320 10005 l0 -3875 80 0 80 0 0 3875 0 3875 -80 0 -80 0 0 -3875z"/>
<path d="M27690 10005 l0 -3875 80 0 80 0 0 3875 0 3875 -80 0 -80 0 0 -3875z"/>
<path d="M28110 10005 l0 -3875 310 0 310 0 0 3875 0 3875 -310 0 -310 0 0
-3875z"/>
</g>
</svg>
