<?xml version="1.0" standalone="no"?>
<!DOCTYPE svg PUBLIC "-//W3C//DTD SVG 20010904//EN"
 "http://www.w3.org/TR/2001/REC-SVG-20010904/DTD/svg10.dtd">
<svg version="1.0" xmlns="http://www.w3.org/2000/svg"
 width="512.000000pt" height="512.000000pt" viewBox="0 0 512.000000 512.000000"
 preserveAspectRatio="xMidYMid meet">

<g transform="translate(0.000000,512.000000) scale(0.100000,-0.100000)"
fill="#000000" stroke="none">
<path d="M2453 5105 c-141 -38 -250 -141 -299 -280 -13 -37 -19 -97 -23 -228
l-6 -179 -85 -33 c-194 -74 -360 -178 -502 -313 -185 -177 -314 -378 -392
-613 -68 -203 -68 -204 -76 -764 -8 -535 -12 -586 -60 -760 -28 -98 -53 -161
-109 -273 -72 -143 -161 -261 -297 -397 -155 -154 -169 -180 -169 -305 0 -80
4 -102 23 -138 35 -66 88 -119 150 -149 l57 -28 577 -3 578 -3 6 -27 c32 -148
91 -264 181 -361 142 -155 304 -234 507 -248 219 -15 412 61 576 226 112 113
168 218 204 383 l6 27 578 3 577 3 57 28 c62 30 115 83 150 149 19 36 23 58
23 138 0 126 -15 152 -169 305 -206 205 -332 413 -407 672 -46 161 -51 225
-59 758 -8 559 -9 561 -75 761 -78 236 -208 440 -393 616 -142 135 -308 239
-502 313 l-85 33 -6 179 c-5 144 -10 189 -26 235 -78 212 -298 330 -510 273z
m210 -227 c23 -13 55 -42 72 -66 30 -43 30 -45 33 -190 l3 -147 -210 0 -211 0
0 133 c0 97 4 143 15 170 49 116 186 162 298 100z m129 -634 c457 -87 837
-417 982 -854 57 -173 58 -187 66 -735 7 -547 11 -593 67 -785 85 -293 267
-589 478 -776 95 -85 112 -123 79 -185 -32 -63 89 -59 -1904 -59 -1993 0
-1872 -4 -1904 59 -33 62 -16 100 79 185 211 187 393 483 478 776 55 191 59
238 67 785 8 547 9 563 66 735 98 295 315 557 592 714 134 76 318 135 484 156
93 11 264 4 370 -16z m284 -3631 c-14 -60 -75 -171 -122 -222 -103 -114 -233
-172 -389 -174 -156 -1 -292 58 -395 170 -50 55 -111 164 -126 226 l-6 27 522
0 522 0 -6 -27z"/>
</g>
</svg>
