<?xml version="1.0" standalone="no"?>
<!DOCTYPE svg PUBLIC "-//W3C//DTD SVG 20010904//EN"
 "http://www.w3.org/TR/2001/REC-SVG-20010904/DTD/svg10.dtd">
<svg version="1.0" xmlns="http://www.w3.org/2000/svg"
 width="512.000000pt" height="512.000000pt" viewBox="0 0 512.000000 512.000000"
 preserveAspectRatio="xMidYMid meet">

<g transform="translate(0.000000,512.000000) scale(0.100000,-0.100000)"
fill="#000000" stroke="none">
<path d="M1535 4946 c-95 -42 -124 -172 -57 -246 15 -17 72 -60 127 -98 129
-87 133 -100 43 -165 -105 -75 -159 -175 -159 -296 0 -78 6 -111 34 -166 37
-74 78 -114 209 -202 126 -86 132 -88 188 -88 97 0 155 58 155 155 0 78 -16
97 -151 190 -138 95 -142 109 -57 169 72 50 110 97 141 175 21 52 24 71 20
150 -7 153 -52 217 -238 342 -109 74 -136 87 -177 91 -28 2 -61 -3 -78 -11z"/>
<path d="M2335 4946 c-95 -42 -124 -172 -57 -246 15 -17 72 -60 127 -98 129
-87 133 -100 43 -165 -105 -75 -159 -175 -159 -296 0 -78 6 -111 34 -166 37
-74 78 -114 209 -202 126 -86 132 -88 188 -88 97 0 155 58 155 155 0 78 -16
97 -151 190 -138 95 -142 109 -57 169 72 50 110 97 141 175 21 52 24 71 20
150 -7 153 -52 217 -238 342 -109 74 -136 87 -177 91 -28 2 -61 -3 -78 -11z"/>
<path d="M3135 4946 c-95 -42 -124 -172 -57 -246 15 -17 72 -60 127 -98 129
-87 133 -100 43 -165 -105 -75 -159 -175 -159 -296 0 -78 6 -111 34 -166 37
-74 78 -114 209 -202 126 -86 132 -88 188 -88 97 0 155 58 155 155 0 78 -16
97 -151 190 -138 95 -142 109 -57 169 72 50 110 97 141 175 21 52 24 71 20
150 -7 153 -52 217 -238 342 -109 74 -136 87 -177 91 -28 2 -61 -3 -78 -11z"/>
<path d="M1055 3506 c-37 -16 -70 -52 -84 -89 -14 -38 -15 -2023 -1 -2122 39
-269 177 -529 373 -697 170 -146 369 -236 592 -268 92 -13 1158 -13 1250 0
195 28 405 117 551 233 225 179 372 440 414 732 5 39 10 159 10 268 l0 197
108 0 c173 0 279 38 383 137 64 61 111 141 134 228 22 86 22 624 0 710 -23 87
-70 167 -134 228 -104 99 -210 137 -382 137 l-107 0 -4 109 c-3 118 -12 141
-72 185 -27 21 -30 21 -1514 23 -1224 2 -1492 0 -1517 -11z m2783 -1253 c-4
-1028 0 -961 -58 -1115 -29 -78 -106 -194 -175 -263 -69 -69 -185 -146 -263
-175 -149 -56 -125 -54 -737 -58 -615 -4 -660 -1 -796 47 -204 72 -398 257
-469 449 -58 154 -54 87 -58 1115 l-3 947 1281 0 1281 0 -3 -947z m568 601
c15 -11 37 -33 48 -48 20 -26 21 -40 21 -326 0 -286 -1 -300 -21 -326 -44 -60
-67 -69 -185 -72 l-109 -4 0 402 0 402 109 -4 c92 -2 114 -6 137 -24z"/>
</g>
</svg>
