<?xml version="1.0" standalone="no"?>
<!DOCTYPE svg PUBLIC "-//W3C//DTD SVG 20010904//EN"
 "http://www.w3.org/TR/2001/REC-SVG-20010904/DTD/svg10.dtd">
<svg version="1.0" xmlns="http://www.w3.org/2000/svg"
 width="512.000000pt" height="512.000000pt" viewBox="0 0 512.000000 512.000000"
 preserveAspectRatio="xMidYMid meet">

<g transform="translate(0.000000,512.000000) scale(0.100000,-0.100000)"
fill="#000000" stroke="none">
<path d="M1285 4946 c-33 -14 -80 -64 -89 -93 -3 -10 -17 -88 -31 -173 -35
-214 -28 -196 -75 -204 -51 -8 -116 -70 -125 -118 -3 -18 -5 -119 -3 -225 l3
-191 31 -39 c20 -25 46 -43 76 -53 l46 -15 5 -95 c2 -52 4 -96 2 -98 -1 -2
-30 6 -64 18 -51 17 -86 20 -216 20 -152 0 -156 -1 -180 -25 l-25 -24 0 -1278
0 -1278 -265 -265 c-146 -146 -265 -269 -265 -274 0 -10 100 -106 110 -106 3
0 135 130 293 288 l287 288 0 1258 0 1258 108 -4 c102 -3 111 -5 146 -32 65
-49 66 -55 66 -442 l0 -346 34 -57 c126 -209 190 -414 203 -646 16 -298 -78
-606 -260 -853 -33 -46 -37 -55 -24 -65 9 -7 37 -29 65 -50 l49 -39 6 -160 c5
-146 8 -165 32 -214 29 -58 73 -99 132 -120 30 -10 170 -13 683 -14 l645 0
-130 -130 -130 -130 58 -57 57 -58 188 188 187 187 401 0 c434 0 450 2 520 55
18 14 45 50 60 81 27 54 27 60 31 277 2 122 6 241 9 263 l5 42 112 4 c130 5
184 25 252 93 64 64 89 125 90 220 0 67 -4 89 -27 135 -14 30 -37 68 -50 84
l-24 29 24 26 c14 14 37 51 51 81 22 46 26 69 25 135 0 85 -21 141 -77 209
l-23 29 24 26 c14 14 37 51 51 81 21 46 26 69 25 135 0 85 -16 130 -72 203
l-25 33 22 27 c12 15 34 52 49 82 23 46 27 68 27 135 -1 95 -26 156 -90 220
-62 63 -124 88 -230 93 l-90 4 6 237 c4 130 7 255 8 277 1 39 3 42 36 48 43 8
94 50 111 93 20 46 20 400 0 447 -17 42 -73 85 -120 93 -21 3 -37 12 -40 22
-3 9 -17 92 -32 185 -29 177 -41 208 -97 250 l-28 21 -1257 2 c-1030 2 -1263
0 -1287 -11z m2490 -168 c9 -42 45 -265 45 -282 0 -15 -99 -16 -1260 -16
-1161 0 -1260 1 -1260 16 0 17 36 240 45 282 l5 22 1210 0 1210 0 5 -22z m225
-618 l0 -160 -1440 0 -1440 0 0 160 0 160 1440 0 1440 0 0 -160z m-167 -587
c-2 -148 -6 -273 -8 -279 -2 -6 -36 -13 -77 -16 -125 -9 -225 -74 -278 -183
-36 -73 -35 -188 1 -265 14 -30 38 -67 52 -82 l26 -28 -26 -27 c-14 -16 -37
-50 -51 -78 -22 -42 -26 -63 -26 -135 0 -72 4 -93 26 -135 14 -27 37 -62 51
-77 l26 -28 -26 -27 c-14 -16 -37 -50 -51 -78 -22 -42 -26 -63 -26 -135 0 -72
4 -93 26 -135 14 -27 37 -62 51 -77 l26 -28 -26 -27 c-14 -16 -37 -50 -51 -78
-22 -42 -26 -63 -26 -135 -1 -70 4 -94 24 -135 49 -100 149 -171 255 -182 l52
-5 -3 -92 c-2 -50 -5 -165 -8 -255 -3 -164 -4 -165 -30 -188 l-27 -23 -1149 0
-1149 0 -27 24 -28 23 -6 269 -7 269 43 95 c154 347 174 717 59 1076 -14 43
-50 130 -81 192 l-54 112 -10 398 c-5 218 -12 475 -15 570 l-6 172 1280 0
1279 0 -5 -267z m333 -479 c53 -39 69 -71 69 -134 0 -63 -16 -95 -69 -134 -25
-19 -44 -21 -224 -24 -223 -4 -256 2 -301 53 -52 59 -54 147 -4 206 47 55 67
59 295 56 191 -2 209 -4 234 -23z m0 -480 c53 -39 69 -71 69 -134 0 -63 -16
-95 -69 -134 -25 -19 -44 -21 -224 -24 -223 -4 -256 2 -301 53 -52 59 -54 147
-4 206 47 55 67 59 295 56 191 -2 209 -4 234 -23z m0 -480 c53 -39 69 -71 69
-134 0 -63 -16 -95 -69 -134 -25 -19 -44 -21 -224 -24 -223 -4 -256 2 -301 53
-52 59 -54 147 -4 206 47 55 67 59 295 56 191 -2 209 -4 234 -23z m0 -480 c53
-39 69 -71 69 -134 0 -63 -16 -95 -69 -134 -25 -19 -44 -21 -224 -24 -223 -4
-256 2 -301 53 -52 59 -54 147 -4 206 47 55 67 59 295 56 191 -2 209 -4 234
-23z"/>
<path d="M2420 3184 c-36 -7 -108 -35 -160 -60 -159 -79 -297 -236 -365 -417
-91 -243 -65 -528 67 -752 23 -38 78 -106 123 -151 65 -66 98 -90 175 -128
206 -101 394 -101 599 0 207 102 362 320 406 568 29 166 12 333 -49 482 -45
110 -95 184 -186 275 -161 161 -392 230 -610 183z m366 -204 c145 -70 265
-224 311 -400 24 -88 24 -272 0 -360 -45 -168 -162 -324 -295 -393 -37 -19
-77 -38 -90 -42 -23 -7 -22 -5 7 35 66 91 94 226 72 342 -21 107 -63 180 -166
287 -123 129 -140 162 -140 271 0 105 19 145 113 243 75 77 66 76 188 17z
m-386 -1 c-65 -90 -93 -225 -71 -341 21 -107 63 -180 166 -287 123 -129 140
-162 140 -271 0 -75 -3 -91 -28 -136 -16 -28 -57 -79 -91 -113 l-62 -62 -43
16 c-188 66 -333 228 -388 435 -13 47 -18 100 -17 190 1 106 5 137 27 205 59
180 183 321 342 387 57 24 59 23 25 -23z"/>
</g>
</svg>
