<?xml version="1.0" standalone="no"?>
<!DOCTYPE svg PUBLIC "-//W3C//DTD SVG 20010904//EN"
 "http://www.w3.org/TR/2001/REC-SVG-20010904/DTD/svg10.dtd">
<svg version="1.0" xmlns="http://www.w3.org/2000/svg"
 width="512.000000pt" height="512.000000pt" viewBox="0 0 512.000000 512.000000"
 preserveAspectRatio="xMidYMid meet">

<g transform="translate(0.000000,512.000000) scale(0.100000,-0.100000)"
fill="#000000" stroke="none">
<path d="M2840 4633 c-349 -35 -625 -116 -920 -269 -1080 -564 -1678 -1812
-1345 -2810 77 -230 200 -429 375 -605 370 -371 903 -529 1489 -443 518 76
1031 343 1431 744 406 407 664 905 746 1442 23 148 23 434 1 573 -125 775
-677 1291 -1462 1365 -104 9 -238 11 -315 3z m360 -328 c133 -19 247 -51 369
-103 92 -40 257 -145 321 -204 l35 -32 0 -106 c0 -188 -70 -332 -255 -524
-267 -277 -635 -480 -1105 -610 -320 -89 -481 -148 -695 -257 -265 -134 -443
-260 -630 -448 -135 -135 -213 -242 -276 -376 -21 -44 -39 -82 -41 -85 -8 -9
-24 27 -53 120 -127 410 -76 877 146 1326 178 361 463 689 808 928 424 295
934 432 1376 371z m1030 -802 c205 -544 47 -1262 -398 -1818 -569 -709 -1464
-1043 -2170 -808 -145 48 -324 149 -418 235 -39 36 -43 43 -49 106 -29 297
237 638 710 908 210 120 426 203 790 304 679 189 1300 636 1473 1062 15 37 30
68 34 68 4 0 16 -26 28 -57z"/>
</g>
</svg>
