<?xml version="1.0" standalone="no"?>
<!DOCTYPE svg PUBLIC "-//W3C//DTD SVG 20010904//EN"
 "http://www.w3.org/TR/2001/REC-SVG-20010904/DTD/svg10.dtd">
<svg version="1.0" xmlns="http://www.w3.org/2000/svg"
 width="512.000000pt" height="512.000000pt" viewBox="0 0 512.000000 512.000000"
 preserveAspectRatio="xMidYMid meet">

<g transform="translate(0.000000,512.000000) scale(0.100000,-0.100000)"
fill="#000000" stroke="none">
<path d="M1170 4920 l-100 -200 -115 0 -115 0 0 -225 0 -225 78 0 78 0 22
-237 c29 -304 30 -284 -14 -308 -47 -25 -101 -86 -126 -143 -16 -35 -22 -69
-22 -132 -1 -73 3 -93 26 -140 15 -31 41 -69 57 -84 l30 -29 -31 -36 c-17 -19
-43 -60 -57 -91 -22 -46 -26 -69 -26 -140 0 -71 4 -94 26 -140 14 -31 40 -72
57 -91 l31 -36 -30 -29 c-16 -15 -42 -53 -57 -84 -23 -47 -27 -68 -27 -140 0
-73 4 -93 28 -142 16 -32 48 -75 74 -97 l45 -40 -23 -48 c-79 -164 20 -359
200 -393 30 -6 56 -12 59 -14 2 -3 16 -130 31 -283 l26 -278 310 -5 309 -5
183 -235 183 -235 0 -317 0 -318 75 0 75 0 0 343 0 342 -160 205 c-87 113
-159 208 -160 213 0 4 274 7 610 7 l610 0 4 22 c3 13 15 134 27 269 l22 245
-26 66 c-49 122 -61 191 -60 353 0 128 4 164 25 245 30 110 71 206 123 285
l37 55 -3 422 c-3 475 -3 474 71 623 28 59 56 97 100 139 33 32 66 56 72 54 8
-3 94 -339 209 -818 l197 -813 -119 -671 -119 -671 0 -162 0 -163 75 0 75 0 0
153 c0 150 1 160 120 837 l121 685 -220 909 c-121 500 -222 911 -225 913 -9 9
-121 -29 -173 -58 -63 -35 -59 -45 -42 128 l12 113 78 0 79 0 0 225 0 225
-115 0 -115 0 -100 200 -100 200 -780 0 -780 0 0 -75 0 -75 735 0 735 0 60
-120 c33 -66 60 -122 60 -125 0 -3 -484 -5 -1075 -5 -591 0 -1075 2 -1075 5 0
3 27 59 60 125 l60 120 145 0 145 0 0 75 0 75 -190 0 -190 0 -100 -200z m2470
-425 l0 -75 -1325 0 -1325 0 0 75 0 75 1325 0 1325 0 0 -75z m-160 -236 c0 -6
-9 -111 -21 -233 -16 -166 -25 -228 -39 -251 -29 -49 -69 -171 -84 -258 -12
-65 -13 -157 -9 -443 l6 -362 -62 -123 c-100 -202 -139 -380 -128 -584 7 -114
31 -233 67 -326 20 -54 20 -55 4 -237 l-17 -182 -884 0 -883 0 0 23 c0 12 -9
107 -20 212 -10 104 -18 191 -17 192 2 1 27 15 57 30 132 69 187 242 117 367
l-23 42 56 55 57 55 32 -26 c77 -65 242 -120 358 -120 163 0 368 70 543 186
381 251 608 714 520 1058 -39 152 -137 275 -272 340 -96 46 -153 58 -268 58
-256 0 -533 -133 -756 -364 -56 -58 -112 -125 -140 -166 -1 -2 -14 4 -28 14
-26 16 -26 17 -9 43 46 69 57 106 57 186 1 66 -4 90 -25 135 -34 74 -76 120
-141 156 -50 27 -61 29 -193 34 l-140 5 -22 210 c-11 116 -22 227 -22 248 l-1
37 1165 0 c850 0 1165 -3 1165 -11z m-2023 -656 c85 -40 116 -167 61 -250 -43
-66 -80 -78 -243 -78 -123 0 -145 3 -180 21 -122 63 -125 242 -5 305 49 26
313 28 367 2z m1254 -39 c111 -33 202 -120 246 -234 23 -63 24 -242 0 -330
-92 -341 -459 -690 -784 -744 l-40 -7 9 67 c20 168 81 309 219 504 44 63 100
156 124 205 66 137 79 202 80 393 l0 162 46 0 c25 0 70 -7 100 -16z m-296 -70
c15 -134 -15 -304 -76 -430 -16 -34 -68 -117 -116 -185 -147 -209 -212 -359
-228 -521 -11 -111 -11 -111 -53 -104 -112 18 -234 118 -247 202 -3 25 -21 74
-40 109 l-33 64 38 25 c50 33 98 104 122 178 22 72 23 116 3 188 l-14 55 36
54 c88 128 246 270 387 347 67 36 179 82 203 83 7 1 14 -25 18 -65z m-877
-388 c61 -32 112 -112 112 -176 0 -65 -50 -143 -115 -178 -25 -14 -62 -17
-205 -17 -158 0 -179 2 -222 22 -70 32 -103 88 -103 173 0 56 4 73 27 108 49
74 75 81 291 82 143 0 194 -3 215 -14z m-81 -543 c85 -40 116 -167 61 -250
-43 -66 -80 -78 -243 -78 -123 0 -145 3 -180 21 -122 63 -125 242 -5 305 49
26 313 28 367 2z m-68 -498 c30 -15 61 -69 61 -105 0 -38 -31 -90 -64 -107
-44 -24 -180 -24 -223 0 -80 43 -83 169 -5 211 37 21 193 21 231 1z"/>
<path d="M2090 1715 l0 -75 75 0 75 0 0 75 0 75 -75 0 -75 0 0 -75z"/>
<path d="M2390 1715 l0 -75 75 0 75 0 0 75 0 75 -75 0 -75 0 0 -75z"/>
<path d="M3890 220 l0 -220 75 0 75 0 0 220 0 220 -75 0 -75 0 0 -220z"/>
</g>
</svg>
