<?xml version="1.0" standalone="no"?>
<!DOCTYPE svg PUBLIC "-//W3C//DTD SVG 20010904//EN"
 "http://www.w3.org/TR/2001/REC-SVG-20010904/DTD/svg10.dtd">
<svg version="1.0" xmlns="http://www.w3.org/2000/svg"
 width="512.000000pt" height="512.000000pt" viewBox="0 0 512.000000 512.000000"
 preserveAspectRatio="xMidYMid meet">

<g transform="translate(0.000000,512.000000) scale(0.100000,-0.100000)"
fill="#000000" stroke="none">
<path d="M565 4151 c-90 -22 -172 -90 -215 -176 l-25 -50 0 -392 c0 -380 1
-392 21 -419 38 -52 67 -66 157 -75 140 -14 237 -60 325 -153 173 -182 173
-470 0 -652 -88 -93 -185 -139 -325 -153 -90 -9 -119 -23 -157 -75 -20 -27
-21 -39 -21 -419 l0 -392 34 -63 c38 -70 69 -100 145 -140 l51 -27 2005 0
2005 0 51 27 c76 40 107 70 145 140 l34 63 0 392 c0 380 -1 392 -21 419 -38
52 -67 66 -153 75 -136 13 -216 48 -309 133 -201 187 -201 505 0 692 93 85
173 120 309 133 86 9 115 23 153 75 20 27 21 39 21 419 l0 392 -34 63 c-38 70
-69 100 -145 140 l-51 27 -1985 2 c-1092 0 -1998 -2 -2015 -6z m2635 -446 c0
-131 1 -137 25 -160 23 -24 31 -25 135 -25 104 0 112 1 135 25 24 23 25 29 25
160 l0 135 480 0 480 0 0 -250 c0 -231 -1 -250 -17 -250 -10 -1 -56 -15 -103
-33 -361 -137 -577 -518 -506 -889 42 -217 165 -402 351 -526 66 -44 220 -111
258 -112 16 0 17 -19 17 -250 l0 -250 -480 0 -480 0 0 135 c0 131 -1 137 -25
160 -23 24 -31 25 -135 25 -104 0 -112 -1 -135 -25 -24 -23 -25 -29 -25 -160
l0 -135 -1280 0 -1280 0 0 248 0 248 43 11 c134 36 259 108 356 204 189 188
275 457 227 711 -59 307 -285 551 -583 631 l-43 11 0 248 0 248 1280 0 1280 0
0 -135z"/>
<path d="M3225 3175 c-25 -24 -25 -26 -25 -215 0 -189 0 -191 25 -215 23 -24
31 -25 135 -25 104 0 112 1 135 25 25 24 25 26 25 215 0 189 0 191 -25 215
-23 24 -31 25 -135 25 -104 0 -112 -1 -135 -25z"/>
<path d="M3225 2375 c-25 -24 -25 -26 -25 -215 0 -189 0 -191 25 -215 23 -24
31 -25 135 -25 104 0 112 1 135 25 25 24 25 26 25 215 0 189 0 191 -25 215
-23 24 -31 25 -135 25 -104 0 -112 -1 -135 -25z"/>
</g>
</svg>
