<svg width="26" height="18" viewBox="0 0 26 18" fill="none" xmlns="http://www.w3.org/2000/svg">
<path d="M12.6577 0.46582C12.5796 0.490234 12.4429 0.573242 12.355 0.646484C12.272 0.719727 11.1099 2.04785 9.77197 3.59082C8.43896 5.13379 7.32079 6.42773 7.28661 6.4668C7.2329 6.52051 6.79345 6.32031 4.64501 5.27539C3.22411 4.58203 1.95458 3.97168 1.81786 3.92285C1.36376 3.74219 0.895012 3.88867 0.63134 4.28906C0.367669 4.68457 0.309075 4.44531 2.36474 11.1982C3.39501 14.5625 4.26904 17.3945 4.31298 17.4873C4.40575 17.6826 4.6206 17.8584 4.86474 17.9414C5.104 18.0195 20.8462 18.0195 21.0854 17.9414C21.3296 17.8584 21.5444 17.6826 21.6372 17.4873C21.6811 17.3945 22.5552 14.5625 23.5806 11.1982C25.5825 4.64062 25.5532 4.74805 25.3579 4.35254C25.1675 3.97168 24.6645 3.75684 24.2544 3.87891C24.1518 3.9082 22.897 4.50391 21.4614 5.20703C20.0308 5.90527 18.8198 6.48145 18.7759 6.48633C18.7222 6.49121 17.8335 5.5 16.2026 3.61523C14.8306 2.02832 13.6245 0.670898 13.522 0.597656C13.3169 0.446289 12.9165 0.382812 12.6577 0.46582ZM15.436 5.72461C18.0972 8.79102 18.0581 8.75195 18.5415 8.70801C18.727 8.68848 19.2495 8.4541 20.812 7.69727C21.9302 7.15039 22.853 6.71582 22.8677 6.72559C22.8774 6.74023 22.2524 8.83496 21.4809 11.3838L20.0698 16.0176H12.9751H5.88036L4.46923 11.3838C3.69775 8.83496 3.07275 6.74023 3.0874 6.72559C3.09716 6.71094 4.0249 7.14551 5.13818 7.69238C7.38427 8.79102 7.4624 8.81543 7.86767 8.62012C8.05322 8.53223 8.49755 8.04883 10.519 5.70996C11.8569 4.17188 12.9653 2.91211 12.9849 2.92188C13.0044 2.92676 14.1079 4.18652 15.436 5.72461Z" fill="#FBAD15"/>
<circle cx="12.9751" cy="11.2061" r="1.5" fill="#FBAD15"/>
</svg>
