<?xml version="1.0" standalone="no"?>
<!DOCTYPE svg PUBLIC "-//W3C//DTD SVG 20010904//EN"
 "http://www.w3.org/TR/2001/REC-SVG-20010904/DTD/svg10.dtd">
<svg version="1.0" xmlns="http://www.w3.org/2000/svg"
 width="512.000000pt" height="512.000000pt" viewBox="0 0 512.000000 512.000000"
 preserveAspectRatio="xMidYMid meet">

<g transform="translate(0.000000,512.000000) scale(0.100000,-0.100000)"
fill="#000000" stroke="none">
<path d="M2495 4350 c-16 -5 -44 -22 -62 -37 -17 -15 -255 -287 -529 -603
-273 -316 -502 -581 -509 -589 -11 -11 -101 30 -541 244 -291 142 -551 267
-579 277 -93 37 -189 7 -243 -75 -54 -81 -66 -32 355 -1415 211 -689 390
-1269 399 -1288 19 -40 63 -76 113 -93 49 -16 3273 -16 3322 0 50 17 94 53
113 93 9 19 188 599 398 1288 410 1343 404 1321 364 1402 -39 78 -142 122
-226 97 -21 -6 -278 -128 -572 -272 -293 -143 -541 -261 -550 -262 -11 -1
-193 202 -527 588 -281 325 -528 603 -549 618 -42 31 -124 44 -177 27z m569
-1077 c545 -628 537 -620 636 -611 38 4 145 52 465 207 229 112 418 201 421
199 2 -3 -126 -432 -284 -954 l-289 -949 -1453 0 -1453 0 -289 949 c-158 522
-286 951 -283 954 2 3 192 -86 420 -198 460 -225 476 -230 559 -190 38 18 129
117 543 596 274 315 501 573 505 571 4 -1 230 -259 502 -574z"/>
</g>
</svg>
