<svg width="25" height="25" viewBox="0 0 25 25" fill="none" xmlns="http://www.w3.org/2000/svg">
<path d="M22.9167 5.25002C22.9167 5.8023 22.469 6.25002 21.9167 6.25002H3.08337C2.53109 6.25002 2.08337 5.80231 2.08337 5.25002V5.16669C2.08337 4.6144 2.53109 4.16669 3.08337 4.16669H21.9167C22.469 4.16669 22.9167 4.6144 22.9167 5.16669V5.25002ZM22.9167 12.4584C22.9167 11.9061 22.469 11.4584 21.9167 11.4584H3.08337C2.53109 11.4584 2.08337 11.9061 2.08337 12.4584V12.5417C2.08337 13.094 2.53109 13.5417 3.08337 13.5417H21.9167C22.469 13.5417 22.9167 13.094 22.9167 12.5417V12.4584ZM22.9167 19.75C22.9167 19.1977 22.469 18.75 21.9167 18.75H3.08337C2.53109 18.75 2.08337 19.1977 2.08337 19.75V19.8334C2.08337 20.3856 2.53109 20.8334 3.08337 20.8334H21.9167C22.469 20.8334 22.9167 20.3856 22.9167 19.8334V19.75Z" fill="black"/>
</svg>
