<?xml version="1.0" standalone="no"?>
<!DOCTYPE svg PUBLIC "-//W3C//DTD SVG 20010904//EN"
 "http://www.w3.org/TR/2001/REC-SVG-20010904/DTD/svg10.dtd">
<svg version="1.0" xmlns="http://www.w3.org/2000/svg"
 width="512.000000pt" height="512.000000pt" viewBox="0 0 512.000000 512.000000"
 preserveAspectRatio="xMidYMid meet">

<g transform="translate(0.000000,512.000000) scale(0.100000,-0.100000)"
fill="#000000" stroke="none">
<path d="M2260 4816 l0 -306 -225 0 -225 0 0 -150 0 -150 600 0 600 0 0 150 0
150 -150 0 -150 0 0 94 c0 117 -13 185 -49 261 -65 137 -193 229 -348 250
l-53 7 0 -306z"/>
<path d="M2260 3000 l0 -602 -42 7 c-132 20 -241 80 -307 169 -52 69 -70 107
-86 180 -12 55 -13 27 -14 -296 l-1 -358 -905 0 -905 0 0 -150 0 -150 1205 0
1205 0 0 -600 0 -600 613 0 613 0 13 -52 c8 -28 34 -92 59 -142 37 -75 62
-107 136 -182 77 -76 106 -98 186 -137 131 -65 200 -81 340 -81 140 0 209 16
340 81 80 39 109 61 186 137 76 77 98 106 137 186 70 143 79 185 84 418 6 235
-6 383 -43 509 -95 332 -357 603 -684 708 -30 10 -56 19 -57 20 -2 1 -93 620
-93 632 0 1 -45 3 -101 3 -179 0 -304 46 -396 146 -49 52 -99 149 -112 214
l-9 45 -1 -52 -1 -53 -455 0 -455 0 0 89 c0 112 -13 180 -49 256 -65 137 -193
229 -348 250 l-53 7 0 -602z m1340 -1181 c-23 -75 -86 -168 -147 -217 -23 -18
-72 -47 -110 -65 -64 -30 -75 -32 -200 -35 l-133 -4 0 319 c0 352 -4 384 -60
462 -35 48 -107 97 -159 108 -20 5 144 10 369 13 257 4 414 10 430 16 l25 11
3 -271 c2 -247 1 -277 -18 -337z m834 -451 c24 -184 21 -174 73 -188 132 -38
261 -173 297 -315 88 -337 -220 -640 -556 -547 -235 66 -374 309 -313 547 27
102 95 194 198 270 l28 20 -22 148 c-12 81 -19 150 -17 152 14 15 163 44 224
44 l70 1 18 -132z"/>
<path d="M16 548 c68 -234 252 -423 491 -504 408 -138 867 97 987 504 l15 52
-163 0 -163 0 -19 -42 c-67 -149 -242 -258 -414 -258 -82 0 -178 28 -243 71
-62 41 -142 131 -164 186 l-18 43 -162 0 -162 0 15 -52z"/>
</g>
</svg>
