<?xml version="1.0" standalone="no"?>
<!DOCTYPE svg PUBLIC "-//W3C//DTD SVG 20010904//EN"
 "http://www.w3.org/TR/2001/REC-SVG-20010904/DTD/svg10.dtd">
<svg version="1.0" xmlns="http://www.w3.org/2000/svg"
 width="512.000000pt" height="512.000000pt" viewBox="0 0 512.000000 512.000000"
 preserveAspectRatio="xMidYMid meet">

<g transform="translate(0.000000,512.000000) scale(0.100000,-0.100000)"
fill="#000000" stroke="none">
<path d="M890 4721 c-208 -46 -401 -151 -557 -304 -265 -258 -374 -615 -318
-1041 129 -982 1059 -2137 2338 -2901 117 -70 158 -89 195 -93 57 -5 89 9 286
130 832 509 1526 1197 1931 1913 167 294 279 594 332 885 21 120 24 403 4 510
-68 374 -284 654 -634 820 -144 69 -234 91 -397 97 -113 4 -152 1 -240 -17
-198 -40 -423 -151 -612 -300 -217 -171 -472 -474 -618 -732 -17 -32 -35 -58
-38 -57 -4 0 -35 48 -70 107 -208 356 -544 695 -842 851 -202 106 -329 141
-530 147 -117 3 -161 0 -230 -15z m370 -266 c214 -45 420 -172 645 -399 204
-205 320 -366 464 -644 73 -141 78 -148 124 -171 38 -19 56 -22 92 -17 69 11
98 43 176 197 255 503 644 887 1029 1015 78 26 97 28 240 29 149 0 158 -1 243
-32 305 -109 509 -346 563 -655 21 -123 14 -351 -16 -493 -45 -211 -139 -457
-261 -680 -381 -699 -1054 -1371 -1879 -1874 l-115 -70 -45 26 c-324 187 -719
476 -993 727 -661 605 -1079 1238 -1224 1853 -25 108 -27 134 -27 313 0 184 2
200 28 285 56 183 150 321 289 426 114 86 260 154 367 172 62 10 235 6 300 -8z"/>
</g>
</svg>
