<?xml version="1.0" standalone="no"?>
<!DOCTYPE svg PUBLIC "-//W3C//DTD SVG 20010904//EN"
 "http://www.w3.org/TR/2001/REC-SVG-20010904/DTD/svg10.dtd">
<svg version="1.0" xmlns="http://www.w3.org/2000/svg"
 width="512.000000pt" height="512.000000pt" viewBox="0 0 512.000000 512.000000"
 preserveAspectRatio="xMidYMid meet">

<g transform="translate(0.000000,512.000000) scale(0.100000,-0.100000)"
fill="#000000" stroke="none">
<path d="M2447 4599 c-54 -11 -1353 -506 -1432 -546 -166 -85 -279 -240 -312
-430 -21 -120 -13 -850 11 -1018 45 -314 122 -562 261 -835 253 -495 656 -893
1150 -1136 216 -106 312 -135 433 -135 139 1 241 34 482 156 682 348 1194
1031 1339 1787 41 214 46 298 46 748 0 394 -2 441 -18 495 -50 159 -144 278
-287 362 -60 35 -1392 541 -1454 552 -69 13 -151 13 -219 0z m828 -563 c352
-135 657 -254 678 -263 20 -9 56 -36 78 -60 74 -81 74 -78 77 -453 5 -474 -15
-688 -88 -943 -171 -595 -585 -1100 -1134 -1381 -253 -130 -323 -142 -477 -81
-613 242 -1120 805 -1305 1448 -77 269 -97 473 -92 957 3 373 3 371 74 450 46
51 50 53 259 133 94 36 384 147 645 247 261 100 486 186 500 191 73 25 122 9
785 -245z"/>
<path d="M2459 3780 c-340 -54 -589 -343 -589 -685 0 -162 52 -312 152 -435
27 -34 48 -64 46 -66 -3 -2 -31 -21 -65 -43 -78 -50 -193 -158 -255 -241 -28
-36 -71 -110 -98 -165 -75 -157 -86 -229 -49 -338 27 -80 76 -145 141 -190
104 -70 76 -68 838 -65 l685 3 57 28 c115 56 200 174 214 297 22 190 -175 508
-411 665 -33 21 -64 42 -68 46 -5 4 12 32 37 64 280 344 168 865 -228 1059
-123 60 -281 86 -407 66z m237 -341 c65 -25 117 -66 166 -130 90 -120 92 -299
5 -426 -66 -95 -193 -163 -307 -163 -26 0 -76 9 -111 20 -265 82 -347 420
-151 617 104 104 256 135 398 82z m2 -1054 c110 -22 242 -89 327 -167 77 -71
155 -182 180 -259 16 -47 16 -51 -1 -70 -17 -18 -36 -19 -644 -19 -608 0 -627
1 -644 19 -17 19 -17 23 -2 69 9 27 39 83 66 124 157 239 439 358 718 303z"/>
</g>
</svg>
