<?xml version="1.0" standalone="no"?>
<!DOCTYPE svg PUBLIC "-//W3C//DTD SVG 20010904//EN"
 "http://www.w3.org/TR/2001/REC-SVG-20010904/DTD/svg10.dtd">
<svg version="1.0" xmlns="http://www.w3.org/2000/svg"
 width="512.000000pt" height="512.000000pt" viewBox="0 0 512.000000 512.000000"
 preserveAspectRatio="xMidYMid meet">

<g transform="translate(0.000000,512.000000) scale(0.100000,-0.100000)"
fill="#000000" stroke="none">
<path d="M500 4881 c-19 -10 -43 -29 -53 -42 -10 -14 -93 -223 -185 -464
l-167 -440 0 -385 c0 -437 1 -446 80 -606 48 -98 142 -210 221 -265 l44 -30 0
-1054 0 -1055 -67 0 c-122 0 -197 -61 -197 -159 1 -56 23 -102 66 -133 l33
-23 2285 0 2285 0 33 23 c43 31 65 77 66 133 0 98 -75 159 -197 159 l-67 0 0
1054 0 1053 41 29 c80 55 177 171 224 268 78 158 80 172 80 581 0 198 -3 376
-6 395 -9 52 -321 880 -344 914 -11 16 -36 37 -55 47 -33 18 -108 19 -2060 19
-1952 0 -2027 -1 -2060 -19z m4033 -559 c53 -143 97 -262 97 -265 0 -4 -931
-7 -2070 -7 -1139 0 -2070 3 -2070 7 0 3 44 122 97 265 l96 258 1877 0 1877 0
96 -258z m-3285 -817 c3 -247 -7 -335 -45 -415 -35 -72 -123 -159 -198 -196
-56 -27 -68 -29 -175 -29 -106 0 -120 2 -172 28 -123 61 -214 177 -238 306
-11 60 -14 514 -3 524 4 4 191 6 417 5 l411 -3 3 -220z m1150 -52 l-3 -278
-34 -72 c-41 -88 -123 -171 -208 -211 -52 -24 -69 -27 -168 -27 -103 0 -114 2
-177 32 -88 41 -160 113 -201 201 l-32 67 -3 283 -3 282 416 0 416 0 -3 -277z
m1150 -5 l-3 -283 -32 -67 c-41 -88 -113 -160 -201 -201 -63 -30 -74 -32 -177
-32 -99 0 -116 3 -168 27 -112 53 -209 171 -236 289 -6 24 -11 158 -11 297 l0
252 416 0 415 0 -3 -282z m1160 43 c1 -129 -2 -259 -8 -290 -24 -130 -114
-247 -238 -308 -53 -26 -66 -28 -172 -28 -107 0 -119 2 -173 29 -121 60 -205
167 -232 292 -15 72 -22 524 -8 537 4 4 191 6 417 5 l411 -3 3 -234z m-3103
-850 c31 -19 93 -48 138 -65 77 -28 91 -30 232 -30 139 -1 156 1 239 28 102
34 214 103 292 181 l54 54 54 -54 c100 -100 247 -179 384 -206 39 -7 107 -10
180 -6 187 8 324 66 466 198 l71 66 79 -74 c133 -125 300 -193 479 -193 l87 0
0 -1000 0 -1000 -990 0 -990 0 0 808 0 808 -22 44 c-13 25 -38 55 -57 68 l-35
22 -555 -2 -556 -3 -31 -22 c-67 -48 -64 -5 -64 -907 l0 -816 -150 0 -150 0 0
1000 0 1000 88 0 c178 0 346 68 480 195 l77 72 71 -66 c39 -36 97 -81 129
-100z m455 -1386 l0 -715 -340 0 -340 0 0 715 0 715 340 0 340 0 0 -715z"/>
<path d="M2720 2271 c-51 -27 -77 -71 -85 -144 -4 -34 -5 -253 -3 -487 3 -408
4 -426 24 -460 11 -19 35 -45 54 -58 l34 -22 612 2 613 3 36 35 c19 19 40 50
46 70 6 22 9 204 7 507 -3 460 -3 472 -24 500 -11 15 -36 38 -54 51 l-33 22
-596 0 c-561 0 -598 -1 -631 -19z m1020 -576 l0 -275 -390 0 -390 0 0 275 0
275 390 0 390 0 0 -275z"/>
</g>
</svg>
