<?xml version="1.0" standalone="no"?>
<!DOCTYPE svg PUBLIC "-//W3C//DTD SVG 20010904//EN"
 "http://www.w3.org/TR/2001/REC-SVG-20010904/DTD/svg10.dtd">
<svg version="1.0" xmlns="http://www.w3.org/2000/svg"
 width="512.000000pt" height="512.000000pt" viewBox="0 0 512.000000 512.000000"
 preserveAspectRatio="xMidYMid meet">

<g transform="translate(0.000000,512.000000) scale(0.100000,-0.100000)"
fill="#000000" stroke="none">
<path d="M1581 5104 c-135 -29 -289 -124 -373 -231 -156 -199 -192 -465 -93
-688 14 -32 25 -59 25 -61 0 -1 -154 -4 -342 -6 -324 -4 -346 -5 -402 -26
-159 -59 -272 -180 -320 -341 -14 -47 -16 -120 -16 -511 l0 -457 23 -34 c38
-57 95 -79 209 -79 l98 0 0 -1110 c0 -771 3 -1125 11 -1162 29 -137 140 -284
259 -341 126 -60 14 -57 1900 -57 1517 0 1733 2 1785 15 189 49 336 199 374
383 8 37 11 391 11 1162 l0 1110 98 0 c114 0 171 22 209 79 l23 34 0 457 c0
391 -2 464 -16 511 -48 161 -161 282 -320 341 -56 21 -78 22 -401 26 -189 2
-343 5 -343 6 0 2 11 29 25 61 118 266 41 591 -183 778 -75 63 -199 123 -292
143 -147 31 -353 5 -526 -67 -145 -60 -327 -204 -422 -334 l-22 -30 -22 30
c-39 53 -151 166 -210 211 -207 160 -517 238 -747 188z m314 -341 c163 -40
339 -180 418 -330 42 -80 77 -203 77 -270 l0 -44 -377 3 c-369 3 -379 4 -424
26 -74 36 -125 87 -161 160 -29 59 -33 76 -33 147 1 97 23 152 90 224 97 103
226 130 410 84z m1637 -10 c68 -30 139 -101 170 -170 16 -35 22 -69 22 -128 1
-72 -3 -88 -32 -147 -36 -73 -87 -124 -161 -160 -45 -22 -55 -23 -423 -26
l-378 -3 0 44 c0 67 35 190 77 270 53 102 172 219 278 274 166 85 322 101 447
46z m-1472 -1358 l0 -385 -835 0 -836 0 3 334 c3 321 4 336 24 363 11 15 36
38 54 51 l33 22 778 0 779 0 0 -385z m670 0 l0 -385 -170 0 -170 0 0 385 0
385 170 0 170 0 0 -385z m1920 363 c18 -13 43 -36 54 -51 20 -27 21 -42 24
-363 l3 -334 -836 0 -835 0 0 385 0 385 779 0 778 0 33 -22z m-2590 -2258 l0
-1170 -587 0 c-396 0 -601 4 -628 11 -50 14 -100 64 -114 114 -8 28 -11 369
-11 1128 l0 1087 670 0 670 0 0 -1170z m668 3 l-3 -1168 -165 0 -165 0 -3
1168 -2 1167 170 0 170 0 -2 -1167z m1672 80 c0 -759 -3 -1100 -11 -1128 -14
-50 -64 -100 -114 -114 -27 -7 -232 -11 -627 -11 l-588 0 0 1170 0 1170 670 0
670 0 0 -1087z"/>
</g>
</svg>
